<?xml version="1.0" encoding="UTF-8" standalone="no" ?>
<!DOCTYPE svg PUBLIC "-//W3C//DTD SVG 1.1//EN" "http://www.w3.org/Graphics/SVG/1.1/DTD/svg11.dtd">
<svg xmlns="http://www.w3.org/2000/svg" xmlns:xlink="http://www.w3.org/1999/xlink" version="1.1" width="1280" height="1024" viewBox="0 0 1280 1024" xml:space="preserve">
<desc>Created with Fabric.js 5.3.0</desc>
<defs>
</defs>
<g transform="matrix(1 0 0 1 640 512)" id="background-logo"  >
<rect style="stroke: none; stroke-width: 0; stroke-dasharray: none; stroke-linecap: butt; stroke-dashoffset: 0; stroke-linejoin: miter; stroke-miterlimit: 4; fill: rgb(255,255,255); fill-opacity: 0; fill-rule: nonzero; opacity: 1;"  paint-order="stroke"  x="-640" y="-512" rx="0" ry="0" width="1280" height="1024" />
</g>
<g transform="matrix(1.9211538461538462 0 0 1.9211538461538462 640 395.6864080388972)" id="logo-logo"  >
<g style=""  paint-order="stroke"   >
		<g transform="matrix(0.917930923744532 0 0 0.9179309237445321 0 0)"  >
<g style=""  paint-order="stroke"   >
		<g transform="matrix(1 0 0 1 0 0)"  >
<linearGradient id="SVGID_2_132679" gradientUnits="userSpaceOnUse" gradientTransform="matrix(1 0 0 1 -100 -100)"  x1="0" y1="0" x2="0" y2="200">
<stop offset="0%" style="stop-color:rgb(23,234,217);stop-opacity: 1"/>
<stop offset="100%" style="stop-color:rgb(96,120,234);stop-opacity: 1"/>
</linearGradient>
<polygon style="stroke: none; stroke-width: 1; stroke-dasharray: none; stroke-linecap: butt; stroke-dashoffset: 0; stroke-linejoin: miter; stroke-miterlimit: 4; fill: url(#SVGID_2_132679); fill-rule: nonzero; opacity: 1;"  paint-order="stroke"  points="100,100 0,100 0,95.12 95.12,95.12 95.12,-95.12 -95.12,-95.12 -95.12,0 -100,0 -100,-100 100,-100 100,100 " />
</g>
</g>
</g>
</g>
</g>
<g transform="matrix(1.9211538461538462 0 0 1.9211538461538462 642.1925168269229 667.1128161574082)" id="text-logo"  >
<g style=""  paint-order="stroke"   >
		<g transform="matrix(1 0 0 1 0 0)" id="text-logo-path-0"  >
<path style="stroke: rgb(255,255,255); stroke-width: 0; stroke-dasharray: none; stroke-linecap: butt; stroke-dashoffset: 0; stroke-linejoin: miter; stroke-miterlimit: 4; fill: rgb(49,192,223); fill-rule: nonzero; opacity: 1;"  paint-order="stroke"  transform=" translate(-179.85000000000002, 19.25)" d="M 13.75 0.55 C 18.92 0.55 23.1 -0.88 23.1 -8.25 L 23.1 -9.35 C 23.1 -18.21 8.25 -23.87 8.25 -29.15 C 8.25 -34.16 10.39 -35.2 13.75 -35.2 C 17.11 -35.2 19.25 -34.16 19.25 -29.15 L 19.25 -26.95 L 23.1 -26.95 L 23.1 -30.25 C 23.1 -37.62 18.98 -39.05 13.75 -39.05 C 8.58 -39.05 4.4 -37.62 4.4 -30.25 L 4.4 -29.15 C 4.4 -21.23 19.25 -15.56 19.25 -9.35 C 19.25 -4.34 17.11 -3.3 13.75 -3.3 C 10.39 -3.3 8.25 -4.34 8.25 -9.35 L 8.25 -12.21 L 4.4 -12.21 L 4.4 -8.25 C 4.4 -0.99 8.53 0.55 13.75 0.55 Z M 51.31 -30.25 L 51.31 -8.25 C 51.31 -0.88 55.5 0.55 60.66 0.55 C 65.89 0.55 70.02 -0.99 70.02 -8.25 L 70.02 -30.25 C 70.02 -37.62 65.89 -39.05 60.66 -39.05 C 55.5 -39.05 51.31 -37.62 51.31 -30.25 Z M 55.16 -9.35 L 55.16 -29.15 C 55.16 -34.16 57.31 -35.2 60.66 -35.2 C 64.02 -35.2 66.16 -34.16 66.16 -29.15 L 66.16 -9.35 C 66.16 -4.34 64.02 -3.3 60.66 -3.3 C 57.31 -3.3 55.16 -4.34 55.16 -9.35 Z M 102.63 -9.35 L 102.63 -38.5 L 98.78 -38.5 L 98.78 -8.25 C 98.78 -0.88 102.96 0.55 108.13 0.55 C 113.35 0.55 117.48 -0.88 117.48 -8.25 L 117.48 -38.5 L 113.63 -38.5 L 113.63 -9.35 C 113.63 -4.34 111.48 -3.3 108.13 -3.3 C 104.78 -3.3 102.63 -4.34 102.63 -9.35 Z M 147.07 -38.5 L 147.07 0 L 150.92 0 L 150.92 -29.15 L 162.91 0 L 166.76 0 L 166.76 -38.5 L 162.91 -38.5 L 162.91 -9.35 L 150.92 -38.5 Z M 205.15 -38.5 L 196.9 -38.5 L 196.9 0 L 205.15 0 C 210.37 0 214.5 -1.54 214.5 -8.8 L 214.5 -29.7 C 214.5 -37.07 210.37 -38.5 205.15 -38.5 Z M 200.75 -35.2 L 205.15 -35.2 C 208.5 -35.2 210.65 -34.16 210.65 -29.15 L 210.65 -9.35 C 210.65 -4.34 208.5 -3.3 205.15 -3.3 L 200.75 -3.3 Z M 243.81 0 L 252.06 0 C 257.29 0 261.42 -1.54 261.42 -8.8 L 261.42 -13.2 C 261.42 -17.43 260.04 -19.3 257.84 -20.18 C 259.71 -21.18 260.87 -23.1 260.87 -26.95 L 260.87 -29.7 C 260.87 -37.07 256.74 -38.5 251.51 -38.5 L 243.81 -38.5 Z M 247.66 -3.3 L 247.66 -18.7 L 252.06 -18.7 C 255.42 -18.7 257.56 -17.66 257.56 -12.1 L 257.56 -9.35 C 257.56 -4.34 255.42 -3.3 252.06 -3.3 Z M 247.66 -21.45 L 247.66 -35.2 L 251.51 -35.2 C 254.87 -35.2 257.01 -34.16 257.01 -29.15 L 257.01 -27.5 C 257.01 -22.5 254.87 -21.45 251.51 -21.45 Z M 289.9 -30.25 L 289.9 -8.25 C 289.9 -0.88 294.08 0.55 299.25 0.55 C 304.48 0.55 308.6 -0.99 308.6 -8.25 L 308.6 -30.25 C 308.6 -37.62 304.48 -39.05 299.25 -39.05 C 294.08 -39.05 289.9 -37.62 289.9 -30.25 Z M 293.75 -9.35 L 293.75 -29.15 C 293.75 -34.16 295.9 -35.2 299.25 -35.2 C 302.61 -35.2 304.75 -34.16 304.75 -29.15 L 304.75 -9.35 C 304.75 -4.34 302.61 -3.3 299.25 -3.3 C 295.9 -3.3 293.75 -4.34 293.75 -9.35 Z M 334.62 0 L 338.63 0 L 344.96 -14.96 L 351.28 0 L 355.3 0 L 347.16 -19.25 L 355.3 -38.5 L 351.28 -38.5 L 345.12 -23.93 L 338.96 -38.5 L 334.95 -38.5 L 342.92 -19.64 Z" stroke-linecap="round" />
</g>
</g>
</g>
<g transform="matrix(1.9211538461538462 0 0 1.9211538461538462 640 399.76284281173395)" id="tagline-3a78d944-c0db-44d4-8ad5-60158c925687-logo"  >
<g style=""  paint-order="stroke"   >
		<g transform="matrix(1 0 0 1 0 0)" id="tagline-3a78d944-c0db-44d4-8ad5-60158c925687-logo-path-0"  >
<linearGradient id="SVGID_132680" gradientUnits="userSpaceOnUse" gradientTransform="matrix(1 0 0 1 6.159999999999998 -54.67)"  x1="-6.159963283538843" y1="-13.023780000000016" x2="-6.159963283538843" y2="73.97621999999998">
<stop offset="0%" style="stop-color:rgb(23,234,217);stop-opacity: 1"/>
<stop offset="100%" style="stop-color:rgb(96,120,234);stop-opacity: 1"/>
</linearGradient>
<path style="stroke: rgb(255,255,255); stroke-width: 0; stroke-dasharray: none; stroke-linecap: butt; stroke-dashoffset: 0; stroke-linejoin: miter; stroke-miterlimit: 4; fill: url(#SVGID_132680); fill-rule: nonzero; opacity: 1;"  paint-order="stroke"  transform=" translate(-19.25, 26.95)" d="M 19.25 0.77 C 26.49 0.77 32.34 -1.23 32.34 -11.55 L 32.34 -13.09 C 32.34 -25.49 11.55 -33.42 11.55 -40.81 C 11.55 -47.82 14.55 -49.28 19.25 -49.28 C 23.95 -49.28 26.95 -47.82 26.95 -40.81 L 26.95 -37.73 L 32.34 -37.73 L 32.34 -42.35 C 32.34 -52.67 26.57 -54.67 19.25 -54.67 C 12.01 -54.67 6.16 -52.67 6.16 -42.35 L 6.16 -40.81 C 6.16 -29.72 26.95 -21.79 26.95 -13.09 C 26.95 -6.08 23.95 -4.62 19.25 -4.62 C 14.55 -4.62 11.55 -6.08 11.55 -13.09 L 11.55 -17.09 L 6.16 -17.09 L 6.16 -11.55 C 6.16 -1.39 11.94 0.77 19.25 0.77 Z" stroke-linecap="round" />
</g>
</g>
</g>
<g transform="matrix(1 0 0 1 325 403.5566038056579)" id="tagline-ee21041c-fd7a-4646-a088-df0a2334375e-logo"  >
<g style=""  paint-order="stroke"   >
		<g transform="matrix(1 0 0 1 0 0)" id="tagline-ee21041c-fd7a-4646-a088-df0a2334375e-logo-path-0"  >
<path style="stroke: none; stroke-width: 0; stroke-dasharray: none; stroke-linecap: butt; stroke-dashoffset: 0; stroke-linejoin: miter; stroke-miterlimit: 4; fill: rgb(63,171,226); fill-rule: nonzero; opacity: 1;"  paint-order="stroke"  transform=" translate(0, 0)" d="" stroke-linecap="round" />
</g>
</g>
</g>
</svg>